<svg xmlns="http://www.w3.org/2000/svg" viewBox="0 0 24 24" fill="currentColor"><path d="M12.206.793c.99 0 4.347.276 5.93 3.821.529 1.193.403 3.219.299 4.847l-.003.06c-.012.18-.022.345-.03.51.075.045.203.09.401.09.3-.016.659-.12.922-.203.195-.06.39-.09.57-.09.285 0 .54.075.727.203.39.27.39.645.375.87-.015.3-.195.54-.494.69-.166.09-.39.18-.66.274-.225.09-.465.18-.66.274-.39.18-.555.315-.6.45-.03.09-.015.21.06.39l.01.02c.39.705 1.005 1.455 1.83 2.22.405.375.855.69 1.335.944.315.18.555.345.66.51.15.24.12.48.015.675-.21.375-.75.57-1.605.75-.06.015-.195.04-.315.07-.315.065-.59.12-.775.205-.3.15-.33.45-.375.81-.015.12-.03.285-.06.45-.03.18-.12.42-.39.585-.255.165-.57.18-.84.18-.195 0-.375-.015-.57-.045-.3-.045-.66-.105-1.14-.105-.255 0-.51.015-.78.06-.525.075-1.065.39-1.71.765-.975.57-2.19 1.275-4.005 1.275h-.09c-1.815 0-3.03-.705-4.005-1.275-.645-.375-1.185-.69-1.695-.765a6.67 6.67 0 0 0-.78-.06c-.465 0-.825.06-1.14.105-.195.03-.375.045-.57.045-.27 0-.585-.015-.84-.18-.27-.165-.36-.405-.39-.585-.03-.165-.045-.33-.06-.45-.045-.36-.075-.66-.375-.81-.18-.09-.465-.15-.78-.21-.12-.025-.24-.05-.3-.06-.855-.18-1.395-.375-1.605-.75-.105-.195-.135-.435.015-.675.105-.165.345-.33.66-.51.48-.255.93-.57 1.335-.944.825-.765 1.44-1.515 1.83-2.22l.01-.02c.075-.18.09-.3.06-.39-.045-.135-.21-.27-.6-.45-.195-.105-.435-.195-.66-.285-.27-.09-.495-.18-.66-.27-.3-.15-.48-.39-.495-.69-.015-.225-.015-.6.375-.87.195-.135.435-.21.72-.21.18 0 .375.03.57.09.255.075.63.21.93.21.18 0 .315-.045.39-.09-.015-.21-.03-.42-.045-.645-.105-1.62-.225-3.645.3-4.83C7.645 1.075 11.005.793 12.006.793h.2z"/></svg>
