<svg xmlns="http://www.w3.org/2000/svg" width="34" height="68" fill="none"><path fill="url(#a)" d="M17 18a4 4 0 1 1 0 8 4 4 0 0 1 0-8" opacity=".75"/><g filter="url(#b)"><path fill="#888" d="M18.194 3c.514 0 .942.39 1.016.9.853 5.877 4.262 10.925 9.064 13.982.38.242.57.699.455 1.134l-5.131 19.242a1 1 0 0 1-.967.742H11.368a1 1 0 0 1-.966-.742l-5.13-19.242a1.03 1.03 0 0 1 .454-1.134c4.802-3.057 8.211-8.105 9.065-13.983.074-.508.501-.899 1.015-.899zM17 18a4 4 0 1 0 0 8 4 4 0 0 0 0-8" shape-rendering="crispEdges"/><path fill="#000" fill-opacity=".5" d="M17 18v-.5zm-4 4h-.5zm4 4v.5zm4-4h.5zM14.79 3.9l-.494-.073zM5.273 19.015l.483-.129zm.454-1.134-.268-.422zm4.676 20.376-.483.128zm17.872-20.376-.268.422zM19.21 3.9l-.495.072zm0 0-.495.072c.875 6.026 4.37 11.2 9.29 14.333l.27-.422.268-.422c-4.683-2.98-8.006-7.904-8.838-13.633zm9.519 15.117-.483-.129-5.131 19.242.483.129.483.128 5.13-19.241zM22.63 39v-.5H11.368v1h11.263zm-12.23-.742.484-.13-5.13-19.241-.483.129-.483.129 5.13 19.241zM5.727 17.882l.269.422c4.92-3.133 8.416-8.307 9.29-14.333l-.494-.072-.495-.072c-.832 5.73-4.156 10.652-8.838 13.634zM15.806 3v.5h2.388v-1h-2.388zM17 18v-.5a4.5 4.5 0 0 0-4.5 4.5h1a3.5 3.5 0 0 1 3.5-3.5zm-4 4h-.5a4.5 4.5 0 0 0 4.5 4.5v-1a3.5 3.5 0 0 1-3.5-3.5zm4 4v.5a4.5 4.5 0 0 0 4.5-4.5h-1a3.5 3.5 0 0 1-3.5 3.5zm4-4h.5a4.5 4.5 0 0 0-4.5-4.5v1a3.5 3.5 0 0 1 3.5 3.5zM14.79 3.9l.496.071a.54.54 0 0 1 .52-.471v-1c-.776 0-1.403.587-1.51 1.327zM5.273 19.015l.483-.129a.53.53 0 0 1 .24-.583l-.269-.422-.268-.422a1.53 1.53 0 0 0-.67 1.685zM11.368 39v-.5a.5.5 0 0 1-.483-.371l-.483.129-.483.128a1.5 1.5 0 0 0 1.45 1.114zm12.23-.742-.483-.13a.5.5 0 0 1-.484.372v1a1.5 1.5 0 0 0 1.45-1.114zm4.676-20.376-.268.422c.205.13.296.37.24.583l.483.129.483.129a1.53 1.53 0 0 0-.67-1.684zM19.21 3.9l.494-.072c-.107-.74-.733-1.327-1.51-1.327v1c.252 0 .48.194.52.471z" mask="url(#c)"/></g><g mask="url(#d)"><g filter="url(#e)" opacity=".75"><path fill="url(#f)" d="M19.1 3c.647 6.526 4.432 12.128 9.824 15.28L23.4 39H10.6L5.075 18.28C10.468 15.127 14.253 9.525 14.9 3H16v14.1a5 5 0 1 0 2 0V3z"/><path fill="url(#g)" d="M19.1 3c.647 6.526 4.432 12.128 9.824 15.28L23.4 39H10.6L5.075 18.28C10.468 15.127 14.253 9.525 14.9 3H16v14.1a5 5 0 1 0 2 0V3z"/><path fill="#fff" fill-opacity=".1" d="m19.1 3 .994-.099-.09-.901H19.1zm9.824 15.28.967.257.196-.736-.658-.385zM23.4 39v1h.768l.198-.742zm-12.8 0-.966.258.198.742h.768zM5.075 18.28l-.505-.864-.658.384.197.737zM14.9 3V2h-.906l-.09.901zM16 3h1V2h-1zm0 14.1.199.98.8-.163V17.1zM12 22h-1zm5 5v1zm5-5h1zm-4-4.9h-1v.817l.8.163zM18 3V2h-1v1zm1.1 0-.996.099c.68 6.855 4.656 12.736 10.316 16.044l.504-.864.505-.863c-5.125-2.995-8.72-8.318-9.335-14.515zm9.824 15.28-.966-.258-5.524 20.72.966.258.966.258 5.525-20.721zM23.4 39v-1H10.6v2h12.8zm-12.8 0 .966-.258-5.525-20.72-.966.257-.966.258 5.525 20.72zM5.075 18.28l.504.863c5.66-3.308 9.637-9.189 10.317-16.044L14.901 3l-.995-.099c-.615 6.197-4.21 11.52-9.336 14.515zM14.9 3v1H16V2H14.9zM16 3h-1v14.1h2V3zm0 14.1-.2-.98A6 6 0 0 0 11 22h2a4 4 0 0 1 3.199-3.92zM12 22h-1a6 6 0 0 0 6 6v-2a4 4 0 0 1-4-4zm5 5v1a6 6 0 0 0 6-6h-2a4 4 0 0 1-4 4zm5-5h1a6 6 0 0 0-4.802-5.88L18 17.1l-.2.98A4 4 0 0 1 21 22zm-4-4.9h1V3h-2v14.1zM18 3v1h1.1V2H18z" mask="url(#h)"/></g><path fill="#000" fill-opacity=".5" d="M17 1.5a.5.5 0 0 1 .5.5v18a.5.5 0 0 1-1 0V2a.5.5 0 0 1 .5-.5"/><path fill="#fff" fill-opacity=".1" d="M17 1.5v1a.5.5 0 0 1-.5-.5h2A1.5 1.5 0 0 0 17 .5zm.5.5h-1v18h2V2zm0 18h-1a.5.5 0 0 1 .5-.5v2a1.5 1.5 0 0 0 1.5-1.5zm-.5.5v-1a.5.5 0 0 1 .5.5h-2a1.5 1.5 0 0 0 1.5 1.5zm-.5-.5h1V2h-2v18zm0-18h1a.5.5 0 0 1-.5.5v-2A1.5 1.5 0 0 0 15.5 2z" mask="url(#i)"/></g><g filter="url(#j)" shape-rendering="crispEdges"><path fill="#2C2C2C" d="M5 39a4 4 0 0 1 4-4h16a4 4 0 0 1 4 4v28H5z"/><path stroke="#000" stroke-opacity=".5" stroke-width=".5" d="m25 34.75.219.006A4.25 4.25 0 0 1 29.25 39v28.25H4.75V39A4.25 4.25 0 0 1 9 34.75z"/></g><g mask="url(#k)"><g filter="url(#l)" shape-rendering="crispEdges"><path fill="#888" d="M5 39a4 4 0 0 1 4-4h16a4 4 0 0 1 4 4v28H5z"/><path stroke="#000" stroke-opacity=".15" stroke-width=".5" d="m25 34.75.219.006A4.25 4.25 0 0 1 29.25 39v28.25H4.75V39A4.25 4.25 0 0 1 9 34.75z"/></g><g filter="url(#m)" opacity=".75"><path fill="url(#n)" d="M5 39a4 4 0 0 1 4-4h16a4 4 0 0 1 4 4v28H5z"/><path stroke="#fff" stroke-opacity=".1" d="M9 35.5h16a3.5 3.5 0 0 1 3.5 3.5v27.5h-23V39a3.5 3.5 0 0 1 3.32-3.495z"/></g><path fill="#000" d="M5 39h24v1H5z" opacity=".25"/><path fill="#fff" d="M5 40h24v1H5z" opacity=".1"/><g filter="url(#o)"><path fill="url(#p)" fill-opacity=".5" d="M16.5 51h1v-1h-1zm0-1v1h1v-1zm0-2h1v-1h-1zm0-1v1h1v-1zm0-2h1v-1h-1zm1 2h-1v1h1zm0-2v-1h-1v1zm-1 7h-1v2a2 2 0 0 0 2-2zm-1 1v-1h-2a2 2 0 0 0 2 2zm-1-1h1v-2a2 2 0 0 0-2 2zm1-1v1h1v-2h-1zm1 0h-1v1h2v-1zm0-1v-1h-1v2h1zm-1 0v-1h-2a2 2 0 0 0 2 2zm-1-1h1v-2a2 2 0 0 0-2 2zm1-1v1h1v-2h-1zm1 0h-1v2h2v-2zm2 0v1h2a2 2 0 0 0-2-2zm1 1h-1v2a2 2 0 0 0 2-2zm-1 1v-1h-2a2 2 0 0 0 2 2zm-1-1h1v-2a2 2 0 0 0-2 2zm-1-2v-1h-1v2h1zm-1 0v-1h-2a2 2 0 0 0 2 2zm-1-1h1v-2a2 2 0 0 0-2 2zm1-1v1h1v-2h-1zm1 0h-1v2h2v-2zm2 0v1h2a2 2 0 0 0-2-2zm1 1h-1v2a2 2 0 0 0 2-2zm-1 1v-1h-1v2h1zm-1 0h1v-2h-2v2zm0-2v1h1v-2h-1z" mask="url(#q)"/></g></g><defs><filter id="b" width="32.525" height="45" x=".738" y=".5" color-interpolation-filters="sRGB" filterUnits="userSpaceOnUse"><feFlood flood-opacity="0" result="BackgroundImageFix"/><feColorMatrix in="SourceAlpha" result="hardAlpha" values="0 0 0 0 0 0 0 0 0 0 0 0 0 0 0 0 0 0 127 0"/><feOffset dy="1"/><feGaussianBlur stdDeviation="1"/><feColorMatrix values="0 0 0 0 0 0 0 0 0 0 0 0 0 0 0 0 0 0 0.15 0"/><feBlend in2="BackgroundImageFix" result="effect1_dropShadow_1_2626"/><feColorMatrix in="SourceAlpha" result="hardAlpha" values="0 0 0 0 0 0 0 0 0 0 0 0 0 0 0 0 0 0 127 0"/><feOffset dy="2"/><feGaussianBlur stdDeviation="2"/><feComposite in2="hardAlpha" operator="out"/><feColorMatrix values="0 0 0 0 0 0 0 0 0 0 0 0 0 0 0 0 0 0 0.15 0"/><feBlend in2="effect1_dropShadow_1_2626" result="effect2_dropShadow_1_2626"/><feBlend in="SourceGraphic" in2="effect2_dropShadow_1_2626" result="shape"/></filter><filter id="e" width="27.85" height="40" x="3.075" y="1" color-interpolation-filters="sRGB" filterUnits="userSpaceOnUse"><feFlood flood-opacity="0" result="BackgroundImageFix"/><feBlend in="SourceGraphic" in2="BackgroundImageFix" result="shape"/><feGaussianBlur result="effect1_foregroundBlur_1_2626" stdDeviation="1"/></filter><filter id="j" width="33" height="41" x=".5" y="32.5" color-interpolation-filters="sRGB" filterUnits="userSpaceOnUse"><feFlood flood-opacity="0" result="BackgroundImageFix"/><feColorMatrix in="SourceAlpha" result="hardAlpha" values="0 0 0 0 0 0 0 0 0 0 0 0 0 0 0 0 0 0 127 0"/><feOffset dy="1"/><feGaussianBlur stdDeviation="1"/><feColorMatrix values="0 0 0 0 0 0 0 0 0 0 0 0 0 0 0 0 0 0 0.15 0"/><feBlend in2="BackgroundImageFix" result="effect1_dropShadow_1_2626"/><feColorMatrix in="SourceAlpha" result="hardAlpha" values="0 0 0 0 0 0 0 0 0 0 0 0 0 0 0 0 0 0 127 0"/><feOffset dy="2"/><feGaussianBlur stdDeviation="2"/><feComposite in2="hardAlpha" operator="out"/><feColorMatrix values="0 0 0 0 0 0 0 0 0 0 0 0 0 0 0 0 0 0 0.15 0"/><feBlend in2="effect1_dropShadow_1_2626" result="effect2_dropShadow_1_2626"/><feBlend in="SourceGraphic" in2="effect2_dropShadow_1_2626" result="shape"/></filter><filter id="l" width="33" height="41" x=".5" y="32.5" color-interpolation-filters="sRGB" filterUnits="userSpaceOnUse"><feFlood flood-opacity="0" result="BackgroundImageFix"/><feColorMatrix in="SourceAlpha" result="hardAlpha" values="0 0 0 0 0 0 0 0 0 0 0 0 0 0 0 0 0 0 127 0"/><feOffset dy="1"/><feGaussianBlur stdDeviation="1"/><feColorMatrix values="0 0 0 0 0 0 0 0 0 0 0 0 0 0 0 0 0 0 0.15 0"/><feBlend in2="BackgroundImageFix" result="effect1_dropShadow_1_2626"/><feColorMatrix in="SourceAlpha" result="hardAlpha" values="0 0 0 0 0 0 0 0 0 0 0 0 0 0 0 0 0 0 127 0"/><feOffset dy="2"/><feGaussianBlur stdDeviation="2"/><feComposite in2="hardAlpha" operator="out"/><feColorMatrix values="0 0 0 0 0 0 0 0 0 0 0 0 0 0 0 0 0 0 0.15 0"/><feBlend in2="effect1_dropShadow_1_2626" result="effect2_dropShadow_1_2626"/><feBlend in="SourceGraphic" in2="effect2_dropShadow_1_2626" result="shape"/></filter><filter id="m" width="28" height="36" x="3" y="33" color-interpolation-filters="sRGB" filterUnits="userSpaceOnUse"><feFlood flood-opacity="0" result="BackgroundImageFix"/><feBlend in="SourceGraphic" in2="BackgroundImageFix" result="shape"/><feGaussianBlur result="effect1_foregroundBlur_1_2626" stdDeviation="1"/></filter><filter id="o" width="7" height="11" x="13.5" y="43" color-interpolation-filters="sRGB" filterUnits="userSpaceOnUse"><feFlood flood-opacity="0" result="BackgroundImageFix"/><feColorMatrix in="SourceAlpha" result="hardAlpha" values="0 0 0 0 0 0 0 0 0 0 0 0 0 0 0 0 0 0 127 0"/><feOffset dy="-1"/><feColorMatrix values="0 0 0 0 0 0 0 0 0 0 0 0 0 0 0 0 0 0 0.25 0"/><feBlend in2="BackgroundImageFix" result="effect1_dropShadow_1_2626"/><feBlend in="SourceGraphic" in2="effect1_dropShadow_1_2626" result="shape"/></filter><mask id="c" width="26" height="38" x="4.238" y="2" fill="#000" maskUnits="userSpaceOnUse"><path fill="#fff" d="M4.238 2h26v38h-26z"/><path d="M18.194 3c.514 0 .942.39 1.016.9.853 5.877 4.262 10.925 9.064 13.982.38.242.57.699.455 1.134l-5.131 19.242a1 1 0 0 1-.967.742H11.368a1 1 0 0 1-.966-.742l-5.13-19.242a1.03 1.03 0 0 1 .454-1.134c4.802-3.057 8.211-8.105 9.065-13.983.074-.508.501-.899 1.015-.899zM17 18a4 4 0 1 0 0 8 4 4 0 0 0 0-8"/></mask><mask id="d" width="24" height="36" x="5" y="3" maskUnits="userSpaceOnUse" style="mask-type:alpha"><path fill="#fff" d="M18.194 3c.514 0 .942.39 1.016.9.853 5.877 4.262 10.925 9.064 13.982.38.242.57.699.455 1.134l-5.131 19.242a1 1 0 0 1-.967.742H11.368a1 1 0 0 1-.966-.742l-5.13-19.242a1.03 1.03 0 0 1 .454-1.134c4.802-3.057 8.211-8.105 9.065-13.983.074-.508.501-.899 1.015-.899zM17 18a4 4 0 1 0 0 8 4 4 0 0 0 0-8"/></mask><mask id="h" fill="#fff"><path d="M19.1 3c.647 6.526 4.432 12.128 9.824 15.28L23.4 39H10.6L5.075 18.28C10.468 15.127 14.253 9.525 14.9 3H16v14.1a5 5 0 1 0 2 0V3z"/></mask><mask id="i" width="3" height="21" x="15.5" y=".5" fill="#000" maskUnits="userSpaceOnUse"><path fill="#fff" d="M15.5.5h3v21h-3z"/><path d="M17 1.5a.5.5 0 0 1 .5.5v18a.5.5 0 0 1-1 0V2a.5.5 0 0 1 .5-.5"/></mask><mask id="k" width="24" height="32" x="5" y="35" maskUnits="userSpaceOnUse" style="mask-type:alpha"><path fill="#fff" d="M5 39a4 4 0 0 1 4-4h16a4 4 0 0 1 4 4v28H5z"/></mask><mask id="q" width="7" height="10" x="13.5" y="44" fill="#000" maskUnits="userSpaceOnUse"><path fill="#fff" d="M13.5 44h7v10h-7z"/><path d="M16.5 52a1 1 0 1 1-1-1h1zm0-2h-1a1 1 0 1 1 0-2h1zm2-2a1 1 0 1 1 0 2 1 1 0 0 1 0-2m-2-1h-1a1 1 0 1 1 0-2h1zm2-2a1 1 0 1 1 0 2h-1v-2z"/></mask><linearGradient id="a" x1="17" x2="17" y1="18" y2="26.4" gradientUnits="userSpaceOnUse"><stop stop-opacity="0"/><stop offset="1" stop-opacity=".5"/></linearGradient><linearGradient id="f" x1="5.075" x2="28.924" y1="18.861" y2="18.861" gradientUnits="userSpaceOnUse"><stop offset=".49" stop-color="#222" stop-opacity="0"/><stop offset="1" stop-color="#222"/></linearGradient><linearGradient id="g" x1="14.018" x2="20.713" y1="2.552" y2="34.902" gradientUnits="userSpaceOnUse"><stop offset=".726" stop-color="#222" stop-opacity="0"/><stop offset="1" stop-color="#222"/></linearGradient><linearGradient id="n" x1="5" x2="29" y1="51" y2="51" gradientUnits="userSpaceOnUse"><stop stop-color="#222" stop-opacity=".5"/><stop offset=".394" stop-color="#222" stop-opacity="0"/><stop offset=".832" stop-color="#222"/></linearGradient><linearGradient id="p" x1="19.5" x2="14.5" y1="49" y2="49" gradientUnits="userSpaceOnUse"><stop stop-color="#fff" stop-opacity=".25"/><stop offset="1" stop-color="#fff" stop-opacity=".5"/></linearGradient></defs></svg>
