<svg xmlns="http://www.w3.org/2000/svg" width="36" height="67" fill="none"><g mask="url(#a)"><g filter="url(#b)"><path stroke="#fff" stroke-opacity=".25" d="M6.291 39.5h23v36h-23z"/></g><g filter="url(#c)" opacity=".5"><path fill="url(#d)" d="M5.791 39h24v37h-24z"/></g><g filter="url(#e)" opacity=".5"><path fill="url(#f)" d="M5.791 39h24v37h-24z"/></g><path fill="#fff" fill-opacity=".25" d="M5.791 39h24v1h-24z" opacity=".2"/><g filter="url(#g)"><path fill="url(#h)" fill-opacity=".5" d="M17.291 50h1v-1h-1zm0-1v1h1v-1zm0-2h1v-1h-1zm0-1v1h1v-1zm0-2h1v-1h-1zm1 2h-1v1h1zm0-2v-1h-1v1zm-1 7h-1v2a2 2 0 0 0 2-2zm-1 1v-1h-2a2 2 0 0 0 2 2zm-1-1h1v-2a2 2 0 0 0-2 2zm1-1v1h1v-2h-1zm1 0h-1v1h2v-1zm0-1v-1h-1v2h1zm-1 0v-1h-2a2 2 0 0 0 2 2zm-1-1h1v-2a2 2 0 0 0-2 2zm1-1v1h1v-2h-1zm1 0h-1v2h2v-2zm2 0v1h2a2 2 0 0 0-2-2zm1 1h-1v2a2 2 0 0 0 2-2zm-1 1v-1h-2a2 2 0 0 0 2 2zm-1-1h1v-2a2 2 0 0 0-2 2zm-1-2v-1h-1v2h1zm-1 0v-1h-2a2 2 0 0 0 2 2zm-1-1h1v-2a2 2 0 0 0-2 2zm1-1v1h1v-2h-1zm1 0h-1v2h2v-2zm2 0v1h2a2 2 0 0 0-2-2zm1 1h-1v2a2 2 0 0 0 2-2zm-1 1v-1h-1v2h1zm-1 0h1v-2h-2v2zm0-2v1h1v-2h-1z" mask="url(#i)"/></g></g><g filter="url(#j)"><path fill="url(#k)" fill-opacity=".25" d="M17.79 3c4.317 0 8.434.854 12.19 2.403.389.16.626.553.6.972l-.3 4.781c-13.125 6.954-15.153-5.77-24.969.177l-.31-4.958a.98.98 0 0 1 .6-.972A31.9 31.9 0 0 1 17.792 3" shape-rendering="crispEdges"/></g><g mask="url(#l)" opacity=".5"><path fill="url(#m)" fill-opacity=".35" d="m8.79 4.974 1.5 28 .027.499-.999.053-.026-.5-1.5-28-.028-.499 1-.053zm19.027-.447-.027.5-1.5 28-.026.5-1-.054.028-.5 1.5-28 .026-.5zM13.291 3.483l1 29.5.016.5-.999.034-.017-.5-1-29.5-.017-.5 1-.034zm10.016-.465-.016.499-1 29.5-.018.5-.999-.035.017-.499 1-29.5.017-.5zM18.291 33.5h-1v-31h1z"/><path fill="url(#n)" fill-opacity=".1" d="m8.79 4.974-.999.052v.001zm1.5 28-.999.053v.001zm.027.499.054.998a1 1 0 0 0 .945-1.053zm-.999.053-.998.053a1 1 0 0 0 1.052.946zm-.026-.5.998-.052v-.001zm-1.5-28 .998-.053v-.001zm-.028-.499-.053-.998a1 1 0 0 0-.945 1.053zm1-.053.998-.053a1 1 0 0 0-1.052-.946zm19.053.053.999.055a1 1 0 0 0-.945-1.053zm-.027.5-.999-.055zm-1.5 28-.999-.054zm-.026.5-.054.998a1 1 0 0 0 1.052-.946zm-1-.054-.998-.055a1 1 0 0 0 .945 1.053zm.028-.5.998.055zm1.5-28 .998.054zm.026-.5.054-.998a1 1 0 0 0-1.052.946zm-13.527-.99 1-.033v-.002zm1 29.5 1-.033zm.016.5.035.999a1 1 0 0 0 .965-1.033zm-.999.034-.999.035a1 1 0 0 0 1.034.964zm-.017-.5-1 .033v.002zm-1-29.5-1 .033zm-.017-.5-.034-.999a1 1 0 0 0-.965 1.033zm1-.034.999-.035a1 1 0 0 0-1.034-.964zm10.033.035 1 .033a1 1 0 0 0-.965-1.033zm-.016.499 1 .033zm-1 29.5 1 .035v-.002zm-.018.5-.034.999a1 1 0 0 0 1.034-.964zm-.999-.035-1-.033a1 1 0 0 0 .966 1.033zm.017-.499-1-.033zm1-29.5-1-.035v.002zm.017-.5.035-.999a1 1 0 0 0-1.034.964zM18.291 33.5v1a1 1 0 0 0 1-1zm-1 0h-1a1 1 0 0 0 1 1zm0-31v-1a1 1 0 0 0-1 1zm1 0h1a1 1 0 0 0-1-1zM8.79 4.974l-.999.053 1.5 28 .999-.053.998-.054-1.5-28zm1.5 28-.999.054.028.5.998-.055.999-.055-.028-.5zm.027.499-.053-.999-1 .054.054.998.054.999.999-.054zm-.999.053.999-.052-.027-.5-.998.052-.999.053.027.5zm-.026-.5.998-.053-1.5-28-.998.053-.999.054 1.5 28zm-1.5-28 .998-.054-.027-.5-.999.055-.998.055.027.5zm-.028-.499.054.999 1-.054-.055-.998-.053-.999-1 .054zm1-.053-1 .052.027.5.999-.052.998-.053-.026-.5zm19.053.053-.998-.054-.028.499.999.054.998.055.028-.499zm-.027.5-.999-.054-1.5 28 .999.053.998.054 1.5-28zm-1.5 28-.999-.053-.026.5.999.052.998.053.026-.5zm-.026.5.053-1-.999-.053-.053.999-.054.998.999.054zm-1-.054.999.054.027-.499-.998-.054-.999-.055-.027.499zm.028-.5.998.054 1.5-28-.998-.053-.999-.054-1.5 28zm1.5-28 .998.053.027-.5-.999-.052-.998-.053-.027.5zm.026-.5-.053 1 .999.053.053-.999.054-.998-1-.054zm-13.527-.99-1 .034 1 29.5 1-.034 1-.033-1-29.5zm1 29.5-1 .034.017.499 1-.034.999-.033-.017-.499zm.016.5-.034-1-.999.034.034 1 .035.999.999-.034zm-.999.034 1-.036-.018-.5-1 .036-.999.035.018.5zm-.017-.5 1-.034-1-29.5-1 .034-1 .033 1 29.5zm-1-29.5 1-.034-.017-.499-1 .034-1 .033.017.499zm-.017-.5.034 1 1-.034-.035-1-.034-.999-.999.034zm1-.034-1 .036.017.5 1-.036 1-.035-.018-.5zm10.033.035-.999-.034-.017.5 1 .033 1 .033.016-.5zm-.016.499-1-.034-1 29.5 1 .034 1 .033 1-29.5zm-1 29.5-1-.036-.017.5 1 .036.999.035.017-.5zm-.018.5.034-1-.999-.034-.034 1-.034.999.999.034zm-.999-.035 1 .034.016-.5-1-.033-.999-.033-.016.5zm.017-.499 1 .034 1-29.5-1-.034-1-.033-1 29.5zm1-29.5 1 .036.017-.5-1-.036-.999-.035-.018.5zm.017-.5-.034 1 1 .034.033-1 .035-.999-1-.034zM18.291 33.5v-1h-1v2h1zm-1 0h1v-31h-2v31zm0-31v1h1v-2h-1zm1 0h-1v31h2v-31z" mask="url(#o)"/></g><defs><linearGradient id="d" x1="5.791" x2="29.791" y1="57.5" y2="57.5" gradientUnits="userSpaceOnUse"><stop stop-color="#fff" stop-opacity="0"/><stop offset=".4" stop-color="#fff" stop-opacity=".5"/><stop offset="1" stop-color="#fff" stop-opacity="0"/></linearGradient><linearGradient id="f" x1="5.791" x2="29.791" y1="57.5" y2="57.5" gradientUnits="userSpaceOnUse"><stop stop-opacity=".1"/><stop offset=".4" stop-opacity="0"/><stop offset="1" stop-opacity=".25"/></linearGradient><linearGradient id="h" x1="20.291" x2="15.291" y1="48" y2="48" gradientUnits="userSpaceOnUse"><stop stop-color="#fff" stop-opacity=".25"/><stop offset="1" stop-color="#fff" stop-opacity=".5"/></linearGradient><linearGradient id="k" x1="-4.424" x2="31.762" y1="12.295" y2="12.295" gradientUnits="userSpaceOnUse"><stop stop-color="#fff"/><stop offset=".49" stop-color="#fff" stop-opacity="0"/><stop offset=".5" stop-opacity="0"/><stop offset="1"/></linearGradient><linearGradient id="m" x1="17.791" x2="17.791" y1="2.5" y2="33.526" gradientUnits="userSpaceOnUse"><stop/><stop offset="1" stop-opacity="0"/></linearGradient><linearGradient id="n" x1="17.791" x2="17.791" y1="2.5" y2="33.526" gradientUnits="userSpaceOnUse"><stop stop-color="#fff"/><stop offset="1" stop-color="#fff" stop-opacity=".2"/></linearGradient><filter id="b" width="28" height="41" x="3.791" y="37" color-interpolation-filters="sRGB" filterUnits="userSpaceOnUse"><feFlood flood-opacity="0" result="BackgroundImageFix"/><feBlend in="SourceGraphic" in2="BackgroundImageFix" result="shape"/><feGaussianBlur result="effect1_foregroundBlur_1_2625" stdDeviation="1"/></filter><filter id="c" width="28" height="41" x="3.791" y="37" color-interpolation-filters="sRGB" filterUnits="userSpaceOnUse"><feFlood flood-opacity="0" result="BackgroundImageFix"/><feBlend in="SourceGraphic" in2="BackgroundImageFix" result="shape"/><feGaussianBlur result="effect1_foregroundBlur_1_2625" stdDeviation="1"/></filter><filter id="e" width="28" height="41" x="3.791" y="37" color-interpolation-filters="sRGB" filterUnits="userSpaceOnUse"><feFlood flood-opacity="0" result="BackgroundImageFix"/><feBlend in="SourceGraphic" in2="BackgroundImageFix" result="shape"/><feGaussianBlur result="effect1_foregroundBlur_1_2625" stdDeviation="1"/></filter><filter id="g" width="7" height="11" x="14.291" y="42" color-interpolation-filters="sRGB" filterUnits="userSpaceOnUse"><feFlood flood-opacity="0" result="BackgroundImageFix"/><feColorMatrix in="SourceAlpha" result="hardAlpha" values="0 0 0 0 0 0 0 0 0 0 0 0 0 0 0 0 0 0 127 0"/><feOffset dy="-1"/><feColorMatrix values="0 0 0 0 0 0 0 0 0 0 0 0 0 0 0 0 0 0 0.25 0"/><feBlend in2="BackgroundImageFix" result="effect1_dropShadow_1_2625"/><feBlend in="SourceGraphic" in2="effect1_dropShadow_1_2625" result="shape"/></filter><filter id="j" width="25.582" height="11.298" x="5" y="3" color-interpolation-filters="sRGB" filterUnits="userSpaceOnUse"><feFlood flood-opacity="0" result="BackgroundImageFix"/><feColorMatrix in="SourceAlpha" result="hardAlpha" values="0 0 0 0 0 0 0 0 0 0 0 0 0 0 0 0 0 0 127 0"/><feOffset dy="1"/><feComposite in2="hardAlpha" operator="out"/><feColorMatrix values="0 0 0 0 1 0 0 0 0 1 0 0 0 0 1 0 0 0 0.15 0"/><feBlend in2="BackgroundImageFix" result="effect1_dropShadow_1_2625"/><feBlend in="SourceGraphic" in2="effect1_dropShadow_1_2625" result="shape"/><feColorMatrix in="SourceAlpha" result="hardAlpha" values="0 0 0 0 0 0 0 0 0 0 0 0 0 0 0 0 0 0 127 0"/><feOffset dy="-1"/><feComposite in2="hardAlpha" k2="-1" k3="1" operator="arithmetic"/><feColorMatrix values="0 0 0 0 0 0 0 0 0 0 0 0 0 0 0 0 0 0 0.25 0"/><feBlend in2="shape" result="effect2_innerShadow_1_2625"/><feColorMatrix in="SourceAlpha" result="hardAlpha" values="0 0 0 0 0 0 0 0 0 0 0 0 0 0 0 0 0 0 127 0"/><feOffset dy="1"/><feGaussianBlur stdDeviation=".5"/><feComposite in2="hardAlpha" k2="-1" k3="1" operator="arithmetic"/><feColorMatrix values="0 0 0 0 1 0 0 0 0 1 0 0 0 0 1 0 0 0 0.15 0"/><feBlend in2="effect2_innerShadow_1_2625" result="effect3_innerShadow_1_2625"/></filter><mask id="a" width="25" height="27" x="5" y="39" maskUnits="userSpaceOnUse" style="mask-type:alpha"><path fill="#D9D9D9" d="M5.791 39h24v27h-24z"/></mask><mask id="i" width="7" height="10" x="14.291" y="43" fill="#000" maskUnits="userSpaceOnUse"><path fill="#fff" d="M14.291 43h7v10h-7z"/><path d="M17.291 51a1 1 0 1 1-1-1h1zm0-2h-1a1 1 0 1 1 0-2h1zm2-2a1 1 0 1 1 0 2 1 1 0 0 1 0-2m-2-1h-1a1 1 0 1 1 0-2h1zm2-2a1 1 0 1 1 0 2h-1v-2z"/></mask><mask id="l" width="27" height="11" x="4" y="3" maskUnits="userSpaceOnUse" style="mask-type:alpha"><mask id="p" fill="#fff"><path d="M17.79 3c4.317 0 8.433.854 12.19 2.403.388.16.626.553.6.972l-.3 4.781c-13.126 6.954-15.153-5.77-24.969.177l-.31-4.958a.98.98 0 0 1 .6-.972A31.9 31.9 0 0 1 17.791 3"/></mask><path fill="#D9D9D9" d="M17.79 3c4.317 0 8.433.854 12.19 2.403.388.16.626.553.6.972l-.3 4.781c-13.126 6.954-15.153-5.77-24.969.177l-.31-4.958a.98.98 0 0 1 .6-.972A31.9 31.9 0 0 1 17.791 3"/><path fill="#fff" fill-opacity=".1" d="M17.79 3V2zm12.19 2.403.381-.924zm.6.972.998.063zm-.3 4.781.468.884.495-.262.035-.56zm-24.969.177-.998.062.103 1.65 1.413-.857zm-.31-4.958L6 6.313zm.6-.972-.38-.924zM17.791 3v1c4.183 0 8.17.828 11.808 2.328l.381-.925.381-.924A32.9 32.9 0 0 0 17.792 2zm12.19 2.403-.382.925-.01-.007-.006-.006-.001-.002.998.062.998.062a1.98 1.98 0 0 0-1.216-1.958zm.599.972-.998-.063-.3 4.782.998.062.998.063.3-4.781zm-.3 4.781-.468-.883c-3.155 1.67-5.562 2.12-7.535 2.01-1.987-.111-3.631-.792-5.301-1.568-1.624-.754-3.37-1.657-5.33-1.93-2.034-.285-4.231.104-6.853 1.693l.518.855.518.855c2.287-1.385 4.024-1.635 5.54-1.423 1.592.222 3.014.95 4.764 1.764 1.705.792 3.642 1.617 6.033 1.75 2.406.135 5.174-.434 8.582-2.24zm-24.969.177.998-.062L6 6.313l-.997.062-.998.062.31 4.958zm-.31-4.958L6 6.313q0-.002-.002.002l-.005.006-.01.007-.382-.925-.38-.924a1.98 1.98 0 0 0-1.217 1.958zm.6-.972.382.925A30.9 30.9 0 0 1 17.79 4V2c-4.45 0-8.695.88-12.57 2.479z" mask="url(#p)"/></mask><mask id="o" width="23" height="34" x="6.764" y="1.5" fill="#000" maskUnits="userSpaceOnUse"><path fill="#fff" d="M6.764 1.5h23v34h-23z"/><path d="m8.79 4.974 1.5 28 .027.499-.999.053-.026-.5-1.5-28-.028-.499 1-.053zm19.027-.447-.027.5-1.5 28-.026.5-1-.054.028-.5 1.5-28 .026-.5zM13.291 3.483l1 29.5.016.5-.999.034-.017-.5-1-29.5-.017-.5 1-.034zm10.016-.465-.016.499-1 29.5-.018.5-.999-.035.017-.499 1-29.5.017-.5zM18.291 33.5h-1v-31h1z"/></mask></defs></svg>
