<svg xmlns="http://www.w3.org/2000/svg" width="34" height="67" fill="none"><g filter="url(#a)"><path fill="#888" d="M16.071 3.935c.335-.838 1.522-.838 1.858 0l11.035 27.59a.5.5 0 0 1 .036.185v33.404a.5.5 0 0 1-.5.5h-23a.5.5 0 0 1-.5-.5V31.71a.5.5 0 0 1 .036-.186z" shape-rendering="crispEdges"/><path fill="#000" fill-opacity=".5" d="m16.071 3.935-.464-.186zm1.858 0 .464-.186zM5.036 31.525l.464.185zm23.928 0-.464.185zM16.071 3.935l.464.186a.5.5 0 0 1 .93 0l.464-.186.464-.186c-.503-1.257-2.283-1.257-2.786 0zm1.858 0-.464.186L28.5 31.71l.464-.186.465-.186-11.036-27.59zM29 31.71h-.5v33.404h1V31.71zm-.5 33.904v-.5h-23v1h23zm-23.5-.5h.5V31.71h-1v33.404zm.036-33.59.464.186L16.535 4.12l-.464-.185-.464-.186L4.572 31.34zM5 31.71h.5l-.464-.186-.464-.185a1 1 0 0 0-.072.371zm.5 33.904v-.5h-1a1 1 0 0 0 1 1zm23.5-.5h-.5v1a1 1 0 0 0 1-1zm-.036-33.59-.464.186h1q0-.192-.072-.371z" mask="url(#b)"/></g><g mask="url(#c)"><g filter="url(#d)" opacity=".75"><path fill="#fff" fill-opacity=".5" d="m16.071 3.935-.928-.371zm1.858 0 .928-.371zM5.036 31.525l.928.37zm23.928 0-.928.37zM16.071 3.934l.929.371.929-.37.928-.372c-.67-1.677-3.044-1.677-3.714 0zm1.858 0L17 4.306l11.036 27.59.928-.372.929-.371-11.036-27.59zM29 31.71h-1v33.404h2V31.71zm-.5 33.904v-1h-23v2h23zm-23.5-.5h1V31.71H4v33.404zm.036-33.59.928.372L17 4.306l-.929-.37-.928-.372L4.107 31.153zM5 31.71h1a.5.5 0 0 1-.036.186l-.928-.372-.929-.371A1.5 1.5 0 0 0 4 31.71zm.5 33.904v-1a.5.5 0 0 1 .5.5H4a1.5 1.5 0 0 0 1.5 1.5zm23.5-.5h-1a.5.5 0 0 1 .5-.5v2a1.5 1.5 0 0 0 1.5-1.5zm-.036-33.59-.928.372A.5.5 0 0 1 28 31.71h2a1.5 1.5 0 0 0-.107-.557z" mask="url(#e)"/></g><g filter="url(#f)" opacity=".3"><path fill="#000" d="M16.071 3.935c.335-.838 1.522-.838 1.858 0L29 31.614v6H16V4.113z"/><path fill="#fff" fill-opacity=".5" d="m16.071 3.935.928.372zm1.858 0 .928-.371zM29 31.614h1v-.193l-.072-.179zm0 6v1h1v-1zm-13 0h-1v1h1zm0-33.501-.928-.372L15 3.92v.193zm.071-.178.929.371.929-.371.928-.371c-.67-1.677-3.044-1.677-3.714 0zm1.858 0L17 4.306l11.072 27.68.928-.372.928-.372-11.07-27.678zM29 31.614h-1v6h2v-6zm0 6v-1H16v2h13zm-13 0h1V4.113h-2v33.5zm0-33.501.928.372.071-.178-.928-.372-.928-.372-.071.178z" mask="url(#g)"/></g><circle cx="17" cy="1.614" r="10.5" stroke="#fff" stroke-opacity=".05"/><g filter="url(#h)" opacity=".75"><path fill="#666" d="M23.118 32.017a.574.574 0 0 1 .79-.211A7.02 7.02 0 0 0 29 32.64v32.474l-.01.101a1 1 0 0 1-.026.081l-.012.028a1 1 0 0 1-.03.056l-.013.02a.5.5 0 0 1-.119.119l-.03.02-.05.026q-.012.007-.026.012a1 1 0 0 1-.083.027l-.101.01h-23l-.1-.01a.5.5 0 0 1-.085-.027l-.027-.012-.049-.027q-.015-.008-.03-.02a.5.5 0 0 1-.12-.118l-.012-.02a1 1 0 0 1-.03-.056l-.012-.028a1 1 0 0 1-.025-.081l-.01-.1V32.638a7.02 7.02 0 0 0 5.098-.833.574.574 0 0 1 .789.21 6.996 6.996 0 0 0 12.231 0"/><path fill="url(#i)" d="M23.118 32.017a.574.574 0 0 1 .79-.211A7.02 7.02 0 0 0 29 32.64v32.474l-.01.101a1 1 0 0 1-.026.081l-.012.028a1 1 0 0 1-.03.056l-.013.02a.5.5 0 0 1-.119.119l-.03.02-.05.026q-.012.007-.026.012a1 1 0 0 1-.083.027l-.101.01h-23l-.1-.01a.5.5 0 0 1-.085-.027l-.027-.012-.049-.027q-.015-.008-.03-.02a.5.5 0 0 1-.12-.118l-.012-.02a1 1 0 0 1-.03-.056l-.012-.028a1 1 0 0 1-.025-.081l-.01-.1V32.638a7.02 7.02 0 0 0 5.098-.833.574.574 0 0 1 .789.21 6.996 6.996 0 0 0 12.231 0"/></g><path fill="#000" fill-opacity=".5" d="m23.117 32.018.874.487zm.79-.212.512-.858zM29 32.64h1v-1.243l-1.214.266zm0 32.474.995.096.005-.048v-.048zm-.01.1.98.2.01-.05.006-.053zm-.027.085-.928-.373v.001zm-.009.02.91.413.001-.001zm-.034.063-.841-.54h-.001zm-.01.016.82.571.002-.001zm-.12.12-.581-.813-.002.001zm-.03.02.521.854.001-.001zm-.05.027-.422-.906h-.001zm-.026.013.367.93h.001zm-.059.017-.25-.968zm-.024.009.096.995.052-.005.052-.01zm-.101.01v1h.048l.049-.005zm-23 0-.097.995.049.005H5.5zm-.1-.01-.2.98.05.01.053.005zm-.026-.009.253-.968zm-.059-.017-.37.928h.001zm-.027-.013.426-.905h-.001zm-.049-.027-.524.852.002.001zm-.03-.02.584-.81-.001-.002zm-.12-.12-.822.569v.001zm-.01-.016.843-.538-.001-.002zm-.034-.063-.912.41v.002zm-.009-.02.929-.371v-.001zm-.026-.085-.996.097.006.052.01.052zm-.01-.1H4v.048l.005.048zm0-32.475.214-.977L4 31.396v1.243zm5.097-.833-.513-.858zm.789.211.873-.487zm6.116 3.597v1zm6.115-3.596.874.487a.426.426 0 0 1-.598.16l.513-.859.513-.858a1.574 1.574 0 0 0-2.175.583zm.79-.212-.514.858a8.02 8.02 0 0 0 5.82.953L29 32.64l-.214-.977a6.02 6.02 0 0 1-4.367-.715zM29 32.64h-1v32.474h2V32.64zm0 32.474-.995-.097-.01.1.995.097.996.097.01-.1zm-.01.1-.98-.2a1 1 0 0 1 .02-.072l.005-.016.928.373.928.373c.016-.04.054-.137.079-.257zm-.027.085-.928-.372.01-.026.006-.011v-.001l-.001.002-.007.016.911.412.911.412-.002.005v-.002l.003-.005.025-.058zm-.009.02-.91-.413a1 1 0 0 1 .035-.065l.84.541.842.541q.066-.104.104-.191zm-.034.063-.842-.54-.018.03q0 .002 0 0l.029-.044.821.57.822.57.026-.04.013-.02.002-.004v.001l-.011.017zm-.01.016-.82-.572a.5.5 0 0 1 .119-.12l.581.813.581.814a1.5 1.5 0 0 0 .36-.364zm-.12.12-.583-.812.031-.02.004-.003-.005.003.523.852.522.853c.003-.002.046-.027.09-.06zm-.03.02-.522-.853.05-.026.423.906.423.906q.082-.04.147-.08zm-.05.027-.423-.906-.02.01-.003.001h-.001.001l.051-.022.369.93.368.93.079-.035.008-.004.002-.001.001-.001-.007.003zm-.026.013-.368-.93.069-.024-.01.003.25.968.25.968c.003 0 .088-.02.176-.056zm-.059.017-.25-.968a1 1 0 0 0-.12.039l-.028.011-.006.003h-.001l.047-.018a1 1 0 0 1 .134-.038l.2.98.2.98.075-.02zm-.024.009-.097-.995-.1.01.096.995.097.995.1-.01zm-.101.01v-1h-23v2h23zm-23 0 .097-.996-.101-.01-.097.996-.096.995.1.01zm-.1-.01.2-.98a1 1 0 0 1 .15.044l.012.005-.005-.002a1 1 0 0 0-.13-.044l-.253.968-.253.968a1 1 0 0 1-.093-.03l-.017-.007s-.006-.002 0 0l.055.021c.03.01.076.025.133.037zm-.026-.009.252-.968-.008-.002h.002q.015.004.065.023l-.37.93-.369.929a1.3 1.3 0 0 0 .176.056zm-.059-.017.37-.93.034.014.015.008h.002l-.003-.001-.02-.009-.425.905-.426.905-.005-.003h.001l.003.002.008.004c.012.006.04.02.076.034zm-.027-.013.425-.906.049.027-.523.852-.522.853q.069.042.146.08zm-.049-.027.524-.851-.004-.003-.002-.001.003.002q.007.004.033.022l-.584.812-.584.812a1 1 0 0 0 .09.06zm-.03-.02.583-.812c.04.03.082.07.118.121l-.821.57-.821.571a1.5 1.5 0 0 0 .358.364zm-.12-.12.822-.57.028.044-.003-.005-.014-.023-.843.538-.843.539-.01-.016.002.003.039.059zm-.01-.016.842-.54a1 1 0 0 1 .035.064l-.911.413-.911.412q.04.09.103.191zm-.034-.063.911-.412-.007-.016v-.002h-.001l.017.039-.929.371-.928.372c.01.027.02.05.025.058l.002.005.001.002-.003-.006zm-.009-.02.928-.372a1 1 0 0 1 .025.087l-.98.2-.979.2c.022.106.052.194.078.257zm-.026-.085.995-.096-.01-.101-.995.097-.995.096.01.1zm-.01-.1h1V32.639H4v32.475zm0-32.475-.214.977a8.02 8.02 0 0 0 5.824-.952l-.513-.858-.513-.858a6.02 6.02 0 0 1-4.37.714zm5.097-.833.513.858a.426.426 0 0 1-.597-.16l.873-.487.873-.488a1.574 1.574 0 0 0-2.175-.581zm.789.211-.874.487a8 8 0 0 0 6.99 4.11v-2a6 6 0 0 1-5.243-3.084zm6.116 3.597v1a8 8 0 0 0 6.989-4.109l-.874-.487-.873-.487a6 6 0 0 1-5.242 3.083z" mask="url(#j)" opacity=".75"/></g><g mask="url(#k)"><path fill="#fff" d="M5 25.614h5.5v40H5z" opacity=".2"/><path fill="#000" d="M23.5 25.614H29v40h-5.5z" opacity=".2"/><path fill="#000" fill-opacity=".25" d="M15 42.102h5.64v1.28H15zm2.112.24h1.152v3.536h-1.152zm2.376 0h1.152v3.864h-1.152zm-4.328 4.582h3.584l.336 1.208h-3.92zm-.16 0h.992v1.208H15zm3.088 0h.992v1.192l-.992-.576zm1.416-.008h1.136v1.216h-1.136zm-5.944 4.07q0-.8.384-1.311.384-.513 1.008-.624l.144 1.2a.67.67 0 0 0-.424.24.8.8 0 0 0-.152.496q0 .36.192.552.184.2.552.2h.648a.84.84 0 0 1-.432-.384 1.35 1.35 0 0 1-.16-.68q0-.52.248-.912a1.7 1.7 0 0 1 .688-.6 2.3 2.3 0 0 1 1-.208q.569 0 1.008.208.44.216.688.6t.248.896q0 .408-.168.712-.16.312-.424.424h.472v1.152h-3.752q-.536 0-.936-.232a1.54 1.54 0 0 1-.616-.672q-.216-.432-.216-1.056m2.752 0q0 .36.256.577.264.216.688.216.432 0 .688-.224a.7.7 0 0 0 .264-.568.7.7 0 0 0-.264-.576q-.256-.216-.688-.216-.424 0-.688.216a.72.72 0 0 0-.256.576M15 53.957h4.08v1.143h-.464q.24.081.408.36.176.287.176.656 0 .384-.16.656a.7.7 0 0 1-.424.36q.264.105.424.376.16.28.16.656 0 .568-.344.88-.336.312-.928.312H15v-1.208h2.584q.272 0 .4-.112.136-.104.136-.312a.41.41 0 0 0-.168-.344q-.16-.12-.464-.12H15v-1.208h2.584q.272 0 .4-.104.136-.104.136-.312a.42.42 0 0 0-.168-.352q-.16-.12-.464-.12H15zm-.12 7.579q0-.4.16-.712a1.3 1.3 0 0 1 .432-.488q.28-.176.64-.176.44 0 .728.288.295.288.4.84l.192.904q.04.216.128.304.096.088.288.088l-1.016.12-.216-.928a.7.7 0 0 0-.168-.328.42.42 0 0 0-.296-.104.39.39 0 0 0-.312.144.6.6 0 0 0-.12.392q0 .192.088.352.097.168.256.256a.67.67 0 0 0 .352.096h1.432q.2 0 .304-.136a.53.53 0 0 0 .112-.36.6.6 0 0 0-.176-.448q-.176-.168-.496-.192l.136-1.176q.448.032.776.272.336.24.512.64.184.408.184.96 0 .8-.4 1.224t-1.136.424H15v-1.152h.448q-.232-.088-.4-.384a1.44 1.44 0 0 1-.168-.72"/><path fill="url(#l)" fill-opacity=".5" d="M15 43.102h5.64v1.28H15zm2.112.24h1.152v3.536h-1.152zm2.376 0h1.152v3.864h-1.152zm-4.328 4.582h3.584l.336 1.208h-3.92zm-.16 0h.992v1.208H15zm3.088 0h.992v1.192l-.992-.576zm1.416-.008h1.136v1.216h-1.136zm-5.944 4.07q0-.8.384-1.311.384-.513 1.008-.624l.144 1.2a.67.67 0 0 0-.424.24.8.8 0 0 0-.152.496q0 .36.192.552.184.2.552.2h.648a.84.84 0 0 1-.432-.384 1.35 1.35 0 0 1-.16-.68q0-.52.248-.912a1.7 1.7 0 0 1 .688-.6 2.3 2.3 0 0 1 1-.208q.569 0 1.008.208.44.216.688.6t.248.896q0 .408-.168.712-.16.312-.424.424h.472v1.152h-3.752q-.536 0-.936-.232a1.54 1.54 0 0 1-.616-.672q-.216-.432-.216-1.056m2.752 0q0 .36.256.577.264.216.688.216.432 0 .688-.224a.7.7 0 0 0 .264-.568.7.7 0 0 0-.264-.576q-.256-.216-.688-.216-.424 0-.688.216a.72.72 0 0 0-.256.576M15 54.957h4.08v1.143h-.464q.24.081.408.36.176.287.176.656 0 .384-.16.656a.7.7 0 0 1-.424.36q.264.105.424.376.16.28.16.656 0 .568-.344.88-.336.312-.928.312H15v-1.208h2.584q.272 0 .4-.112.136-.104.136-.312a.41.41 0 0 0-.168-.344q-.16-.12-.464-.12H15v-1.208h2.584q.272 0 .4-.104.136-.104.136-.312a.42.42 0 0 0-.168-.352q-.16-.12-.464-.12H15zm-.12 7.579q0-.4.16-.712a1.3 1.3 0 0 1 .432-.488q.28-.176.64-.176.44 0 .728.288.295.288.4.84l.192.904q.04.216.128.304.096.088.288.088l-1.016.12-.216-.928a.7.7 0 0 0-.168-.328.42.42 0 0 0-.296-.104.39.39 0 0 0-.312.144.6.6 0 0 0-.12.392q0 .192.088.352.097.168.256.256a.67.67 0 0 0 .352.096h1.432q.2 0 .304-.136a.53.53 0 0 0 .112-.36.6.6 0 0 0-.176-.448q-.176-.168-.496-.192l.136-1.176q.448.032.776.272.336.24.512.64.184.408.184.96 0 .8-.4 1.224t-1.136.424H15v-1.152h.448q-.232-.088-.4-.384a1.44 1.44 0 0 1-.168-.72"/><g filter="url(#m)" opacity=".1"><path stroke="#fff" d="M23.5 25.614v42m-13-42v42"/></g></g><g filter="url(#n)"><path fill="url(#o)" d="M16.092 3.581a1 1 0 0 1 1.816 0l3.282 7.112a10 10 0 0 1-4.19.92 10 10 0 0 1-4.191-.92z"/></g><defs><filter id="a" width="33" height="71.307" x=".5" y=".807" color-interpolation-filters="sRGB" filterUnits="userSpaceOnUse"><feFlood flood-opacity="0" result="BackgroundImageFix"/><feColorMatrix in="SourceAlpha" result="hardAlpha" values="0 0 0 0 0 0 0 0 0 0 0 0 0 0 0 0 0 0 127 0"/><feOffset dy="1"/><feGaussianBlur stdDeviation="1"/><feColorMatrix values="0 0 0 0 0 0 0 0 0 0 0 0 0 0 0 0 0 0 0.15 0"/><feBlend in2="BackgroundImageFix" result="effect1_dropShadow_1_2624"/><feColorMatrix in="SourceAlpha" result="hardAlpha" values="0 0 0 0 0 0 0 0 0 0 0 0 0 0 0 0 0 0 127 0"/><feOffset dy="2"/><feGaussianBlur stdDeviation="2"/><feComposite in2="hardAlpha" operator="out"/><feColorMatrix values="0 0 0 0 0 0 0 0 0 0 0 0 0 0 0 0 0 0 0.15 0"/><feBlend in2="effect1_dropShadow_1_2624" result="effect2_dropShadow_1_2624"/><feBlend in="SourceGraphic" in2="effect2_dropShadow_1_2624" result="shape"/></filter><filter id="d" width="28" height="66.307" x="3" y="1.306" color-interpolation-filters="sRGB" filterUnits="userSpaceOnUse"><feFlood flood-opacity="0" result="BackgroundImageFix"/><feBlend in="SourceGraphic" in2="BackgroundImageFix" result="shape"/><feGaussianBlur result="effect1_foregroundBlur_1_2624" stdDeviation="1"/></filter><filter id="f" width="19" height="40.307" x="13" y=".306" color-interpolation-filters="sRGB" filterUnits="userSpaceOnUse"><feFlood flood-opacity="0" result="BackgroundImageFix"/><feBlend in="SourceGraphic" in2="BackgroundImageFix" result="shape"/><feGaussianBlur result="effect1_foregroundBlur_1_2624" stdDeviation="1.5"/></filter><filter id="h" width="24" height="33.888" x="5" y="31.727" color-interpolation-filters="sRGB" filterUnits="userSpaceOnUse"><feFlood flood-opacity="0" result="BackgroundImageFix"/><feBlend in="SourceGraphic" in2="BackgroundImageFix" result="shape"/><feColorMatrix in="SourceAlpha" result="hardAlpha" values="0 0 0 0 0 0 0 0 0 0 0 0 0 0 0 0 0 0 127 0"/><feOffset dy="1"/><feComposite in2="hardAlpha" k2="-1" k3="1" operator="arithmetic"/><feColorMatrix values="0 0 0 0 1 0 0 0 0 1 0 0 0 0 1 0 0 0 0.1 0"/><feBlend in2="shape" result="effect1_innerShadow_1_2624"/></filter><filter id="m" width="16" height="44" x="9" y="24.614" color-interpolation-filters="sRGB" filterUnits="userSpaceOnUse"><feFlood flood-opacity="0" result="BackgroundImageFix"/><feBlend in="SourceGraphic" in2="BackgroundImageFix" result="shape"/><feGaussianBlur result="effect1_foregroundBlur_1_2624" stdDeviation=".5"/></filter><filter id="n" width="8.382" height="8.613" x="12.809" y="3" color-interpolation-filters="sRGB" filterUnits="userSpaceOnUse"><feFlood flood-opacity="0" result="BackgroundImageFix"/><feBlend in="SourceGraphic" in2="BackgroundImageFix" result="shape"/><feColorMatrix in="SourceAlpha" result="hardAlpha" values="0 0 0 0 0 0 0 0 0 0 0 0 0 0 0 0 0 0 127 0"/><feOffset dy="-1"/><feComposite in2="hardAlpha" k2="-1" k3="1" operator="arithmetic"/><feColorMatrix values="0 0 0 0 0 0 0 0 0 0 0 0 0 0 0 0 0 0 0.25 0"/><feBlend in2="shape" result="effect1_innerShadow_1_2624"/></filter><mask id="b" width="26" height="64" x="4" y="2.307" fill="#000" maskUnits="userSpaceOnUse"><path fill="#fff" d="M4 2.307h26v64H4z"/><path d="M16.071 3.935c.335-.838 1.522-.838 1.858 0l11.035 27.59a.5.5 0 0 1 .036.185v33.404a.5.5 0 0 1-.5.5h-23a.5.5 0 0 1-.5-.5V31.71a.5.5 0 0 1 .036-.186z"/></mask><mask id="c" width="24" height="63" x="5" y="3" maskUnits="userSpaceOnUse" style="mask-type:alpha"><path fill="#fff" d="M16.071 3.935c.335-.838 1.522-.838 1.858 0l11.035 27.59a.5.5 0 0 1 .036.185v33.404a.5.5 0 0 1-.5.5h-23a.5.5 0 0 1-.5-.5V31.71a.5.5 0 0 1 .036-.186z"/></mask><mask id="e" fill="#fff"><path d="M16.071 3.935c.335-.838 1.522-.838 1.858 0l11.035 27.59a.5.5 0 0 1 .036.185v33.404a.5.5 0 0 1-.5.5h-23a.5.5 0 0 1-.5-.5V31.71a.5.5 0 0 1 .036-.186z"/></mask><mask id="g" fill="#fff"><path d="M16.071 3.935c.335-.838 1.522-.838 1.858 0L29 31.614v6H16V4.113z"/></mask><mask id="j" width="26" height="37" x="4" y="29.727" fill="#000" maskUnits="userSpaceOnUse"><path fill="#fff" d="M4 29.727h26v37H4z"/><path d="M23.117 32.018a.574.574 0 0 1 .79-.212A7.02 7.02 0 0 0 29 32.64v32.474l-.01.1a.5.5 0 0 1-.027.085l-.009.02a1 1 0 0 1-.034.063l-.01.016a.5.5 0 0 1-.12.12q-.015.011-.03.02l-.05.027-.026.013q-.03.01-.059.017l-.024.009-.101.01h-23l-.1-.01q-.014-.005-.026-.009-.03-.007-.059-.017l-.027-.013-.049-.027q-.015-.008-.03-.02a.5.5 0 0 1-.12-.12l-.01-.016a1 1 0 0 1-.034-.063l-.009-.02a.5.5 0 0 1-.026-.085l-.01-.1V32.639a7.02 7.02 0 0 0 5.097-.833.574.574 0 0 1 .789.211 6.996 6.996 0 0 0 12.231 0"/></mask><mask id="k" width="24" height="35" x="5" y="31" maskUnits="userSpaceOnUse" style="mask-type:alpha"><path fill="#D9D9D9" d="M23.118 32.017a.574.574 0 0 1 .79-.211A7.02 7.02 0 0 0 29 32.64v32.974H5V32.639a7.02 7.02 0 0 0 5.098-.833.574.574 0 0 1 .789.21 6.997 6.997 0 0 0 12.231 0" opacity=".75"/></mask><linearGradient id="i" x1="5" x2="29" y1="46.67" y2="46.67" gradientUnits="userSpaceOnUse"><stop stop-color="#222" stop-opacity=".5"/><stop offset=".394" stop-color="#222" stop-opacity="0"/><stop offset=".832" stop-color="#222"/></linearGradient><linearGradient id="l" x1="21" x2="15" y1="54.114" y2="54.114" gradientUnits="userSpaceOnUse"><stop stop-color="#fff" stop-opacity=".25"/><stop offset="1" stop-color="#fff" stop-opacity=".5"/></linearGradient><linearGradient id="o" x1="20.545" x2="13.454" y1="6.883" y2="6.883" gradientUnits="userSpaceOnUse"><stop stop-opacity=".75"/><stop offset="1" stop-opacity=".5"/></linearGradient></defs></svg>
