<svg xmlns="http://www.w3.org/2000/svg" width="34" height="67" fill="none"><g filter="url(#a)"><path fill="url(#b)" fill-opacity=".25" d="M16.071 3.935c.336-.838 1.523-.838 1.858 0l2.785 6.963a10 10 0 0 1-3.714.716 10 10 0 0 1-3.714-.716z"/></g><g mask="url(#c)"><g filter="url(#d)" opacity=".5"><path fill="url(#e)" d="M23.118 32.017a.574.574 0 0 1 .79-.211A7.02 7.02 0 0 0 29 32.64v42.974H5V32.639a7.02 7.02 0 0 0 5.098-.833.574.574 0 0 1 .789.21 6.996 6.996 0 0 0 12.231 0"/></g><g filter="url(#f)" opacity=".5"><path fill="url(#g)" d="M23.118 32.017a.574.574 0 0 1 .79-.211A7.02 7.02 0 0 0 29 32.64v42.974H5V32.639a7.02 7.02 0 0 0 5.098-.833.574.574 0 0 1 .789.21 6.996 6.996 0 0 0 12.231 0"/></g><path fill="#000" d="M5 25.614h5.5v40H5z" opacity=".05"/><path fill="#000" d="M23.5 25.614H29v40h-5.5z" opacity=".1"/><g filter="url(#h)" opacity=".25"><path stroke="#fff" d="M23.5 25.614v42m-13-42v42"/></g><path fill="#000" fill-opacity=".25" d="M15 42.102h5.64v1.28H15zm2.112.24h1.152v3.536h-1.152zm2.376 0h1.152v3.864h-1.152zm-4.328 4.582h3.584l.336 1.208h-3.92zm-.16 0h.992v1.208H15zm3.088 0h.992v1.192l-.992-.576zm1.416-.008h1.136v1.216h-1.136zm-5.944 4.07q0-.8.384-1.311.384-.513 1.008-.624l.144 1.2a.67.67 0 0 0-.424.24.8.8 0 0 0-.152.496q0 .36.192.552.184.2.552.2h.648a.84.84 0 0 1-.432-.384 1.35 1.35 0 0 1-.16-.68q0-.52.248-.912a1.7 1.7 0 0 1 .688-.6 2.3 2.3 0 0 1 1-.208q.569 0 1.008.208.44.216.688.6t.248.896q0 .408-.168.712-.16.312-.424.424h.472v1.152h-3.752q-.536 0-.936-.232a1.54 1.54 0 0 1-.616-.672q-.216-.432-.216-1.056m2.752 0q0 .36.256.577.264.216.688.216.432 0 .688-.224a.7.7 0 0 0 .264-.568.7.7 0 0 0-.264-.576q-.256-.216-.688-.216-.424 0-.688.216a.72.72 0 0 0-.256.576M15 53.957h4.08v1.143h-.464q.24.081.408.36.176.287.176.656 0 .384-.16.656a.7.7 0 0 1-.424.36q.264.105.424.376.16.28.16.656 0 .568-.344.88-.336.312-.928.312H15v-1.208h2.584q.272 0 .4-.112.136-.104.136-.312a.41.41 0 0 0-.168-.344q-.16-.12-.464-.12H15v-1.208h2.584q.272 0 .4-.104.136-.104.136-.312a.42.42 0 0 0-.168-.352q-.16-.12-.464-.12H15zm-.12 7.579q0-.4.16-.712a1.3 1.3 0 0 1 .432-.488q.28-.176.64-.176.44 0 .728.288.295.288.4.84l.192.904q.04.216.128.304.096.088.288.088l-1.016.12-.216-.928a.7.7 0 0 0-.168-.328.42.42 0 0 0-.296-.104.39.39 0 0 0-.312.144.6.6 0 0 0-.12.392q0 .192.088.352.097.168.256.256a.67.67 0 0 0 .352.096h1.432q.2 0 .304-.136a.53.53 0 0 0 .112-.36.6.6 0 0 0-.176-.448q-.176-.168-.496-.192l.136-1.176q.448.032.776.272.336.24.512.64.184.408.184.96 0 .8-.4 1.224t-1.136.424H15v-1.152h.448q-.232-.088-.4-.384a1.44 1.44 0 0 1-.168-.72"/><path fill="url(#i)" fill-opacity=".5" d="M15 43.102h5.64v1.28H15zm2.112.24h1.152v3.536h-1.152zm2.376 0h1.152v3.864h-1.152zm-4.328 4.582h3.584l.336 1.208h-3.92zm-.16 0h.992v1.208H15zm3.088 0h.992v1.192l-.992-.576zm1.416-.008h1.136v1.216h-1.136zm-5.944 4.07q0-.8.384-1.311.384-.513 1.008-.624l.144 1.2a.67.67 0 0 0-.424.24.8.8 0 0 0-.152.496q0 .36.192.552.184.2.552.2h.648a.84.84 0 0 1-.432-.384 1.35 1.35 0 0 1-.16-.68q0-.52.248-.912a1.7 1.7 0 0 1 .688-.6 2.3 2.3 0 0 1 1-.208q.569 0 1.008.208.44.216.688.6t.248.896q0 .408-.168.712-.16.312-.424.424h.472v1.152h-3.752q-.536 0-.936-.232a1.54 1.54 0 0 1-.616-.672q-.216-.432-.216-1.056m2.752 0q0 .36.256.577.264.216.688.216.432 0 .688-.224a.7.7 0 0 0 .264-.568.7.7 0 0 0-.264-.576q-.256-.216-.688-.216-.424 0-.688.216a.72.72 0 0 0-.256.576M15 54.957h4.08v1.143h-.464q.24.081.408.36.176.287.176.656 0 .384-.16.656a.7.7 0 0 1-.424.36q.264.105.424.376.16.28.16.656 0 .568-.344.88-.336.312-.928.312H15v-1.208h2.584q.272 0 .4-.112.136-.104.136-.312a.41.41 0 0 0-.168-.344q-.16-.12-.464-.12H15v-1.208h2.584q.272 0 .4-.104.136-.104.136-.312a.42.42 0 0 0-.168-.352q-.16-.12-.464-.12H15zm-.12 7.579q0-.4.16-.712a1.3 1.3 0 0 1 .432-.488q.28-.176.64-.176.44 0 .728.288.295.288.4.84l.192.904q.04.216.128.304.096.088.288.088l-1.016.12-.216-.928a.7.7 0 0 0-.168-.328.42.42 0 0 0-.296-.104.39.39 0 0 0-.312.144.6.6 0 0 0-.12.392q0 .192.088.352.097.168.256.256a.67.67 0 0 0 .352.096h1.432q.2 0 .304-.136a.53.53 0 0 0 .112-.36.6.6 0 0 0-.176-.448q-.176-.168-.496-.192l.136-1.176q.448.032.776.272.336.24.512.64.184.408.184.96 0 .8-.4 1.224t-1.136.424H15v-1.152h.448q-.232-.088-.4-.384a1.44 1.44 0 0 1-.168-.72"/></g><defs><linearGradient id="b" x1="12.81" x2="21.191" y1="7.307" y2="7.307" gradientUnits="userSpaceOnUse"><stop stop-color="#fff"/><stop offset=".49" stop-color="#fff" stop-opacity="0"/><stop offset=".5" stop-opacity="0"/><stop offset="1"/></linearGradient><linearGradient id="e" x1="5" x2="29" y1="51.67" y2="51.67" gradientUnits="userSpaceOnUse"><stop stop-color="#fff" stop-opacity="0"/><stop offset=".4" stop-color="#fff" stop-opacity=".5"/><stop offset="1" stop-color="#fff" stop-opacity="0"/></linearGradient><linearGradient id="g" x1="5" x2="29" y1="51.67" y2="51.67" gradientUnits="userSpaceOnUse"><stop stop-opacity=".1"/><stop offset=".4" stop-opacity="0"/><stop offset="1" stop-opacity=".25"/></linearGradient><linearGradient id="i" x1="21" x2="15" y1="54.114" y2="54.114" gradientUnits="userSpaceOnUse"><stop stop-color="#fff" stop-opacity=".25"/><stop offset="1" stop-color="#fff" stop-opacity=".5"/></linearGradient><filter id="a" width="7.428" height="8.307" x="13.286" y="3.307" color-interpolation-filters="sRGB" filterUnits="userSpaceOnUse"><feFlood flood-opacity="0" result="BackgroundImageFix"/><feBlend in="SourceGraphic" in2="BackgroundImageFix" result="shape"/><feColorMatrix in="SourceAlpha" result="hardAlpha" values="0 0 0 0 0 0 0 0 0 0 0 0 0 0 0 0 0 0 127 0"/><feOffset dy="-1"/><feComposite in2="hardAlpha" k2="-1" k3="1" operator="arithmetic"/><feColorMatrix values="0 0 0 0 0 0 0 0 0 0 0 0 0 0 0 0 0 0 0.1 0"/><feBlend in2="shape" result="effect1_innerShadow_1_2624"/></filter><filter id="d" width="24" height="43.887" x="5" y="31.727" color-interpolation-filters="sRGB" filterUnits="userSpaceOnUse"><feFlood flood-opacity="0" result="BackgroundImageFix"/><feBlend in="SourceGraphic" in2="BackgroundImageFix" result="shape"/><feColorMatrix in="SourceAlpha" result="hardAlpha" values="0 0 0 0 0 0 0 0 0 0 0 0 0 0 0 0 0 0 127 0"/><feOffset dy="1"/><feComposite in2="hardAlpha" k2="-1" k3="1" operator="arithmetic"/><feColorMatrix values="0 0 0 0 1 0 0 0 0 1 0 0 0 0 1 0 0 0 0.25 0"/><feBlend in2="shape" result="effect1_innerShadow_1_2624"/></filter><filter id="f" width="28" height="47.887" x="3" y="29.727" color-interpolation-filters="sRGB" filterUnits="userSpaceOnUse"><feFlood flood-opacity="0" result="BackgroundImageFix"/><feBlend in="SourceGraphic" in2="BackgroundImageFix" result="shape"/><feGaussianBlur result="effect1_foregroundBlur_1_2624" stdDeviation="1"/></filter><filter id="h" width="18" height="46" x="8" y="23.614" color-interpolation-filters="sRGB" filterUnits="userSpaceOnUse"><feFlood flood-opacity="0" result="BackgroundImageFix"/><feBlend in="SourceGraphic" in2="BackgroundImageFix" result="shape"/><feGaussianBlur result="effect1_foregroundBlur_1_2624" stdDeviation="1"/></filter><mask id="c" width="24" height="35" x="5" y="31" maskUnits="userSpaceOnUse" style="mask-type:alpha"><path fill="#D9D9D9" d="M23.118 32.017a.574.574 0 0 1 .79-.211A7.02 7.02 0 0 0 29 32.64v32.974H5V32.639a7.02 7.02 0 0 0 5.098-.833.574.574 0 0 1 .789.21 6.996 6.996 0 0 0 12.231 0"/></mask></defs></svg>
