<svg xmlns="http://www.w3.org/2000/svg" width="36" height="67" fill="none"><g filter="url(#a)"><path fill="#888" fill-rule="evenodd" d="M5.002 6.375a.98.98 0 0 1 .6-.972A31.9 31.9 0 0 1 17.792 3c4.315 0 8.432.854 12.188 2.403a.98.98 0 0 1 .6.972l-1.73 27.687a1 1 0 0 1-.998.938H7.73a1 1 0 0 1-.998-.938z" clip-rule="evenodd" shape-rendering="crispEdges"/><path fill="#000" fill-opacity=".5" d="m28.85 34.062-.5-.03zm1.13-28.659-.19.463zm.6.972.5.03zM5.602 5.403l.19.463a31.4 31.4 0 0 1 12-2.366v-1c-4.383 0-8.565.868-12.38 2.441zM17.792 3v.5c4.249 0 8.3.841 11.998 2.366l.19-.463.191-.462A32.4 32.4 0 0 0 17.791 2.5zM30.58 6.375l-.499-.032-1.73 27.688.499.031.499.032 1.73-27.688zM27.852 35v-.5H7.73v1h20.12zm-21.12-.938.5-.03L5.5 6.342l-.499.032-.499.03 1.73 27.689zm.999.938v-.5a.5.5 0 0 1-.5-.469l-.498.031-.5.032A1.5 1.5 0 0 0 7.731 35.5zm21.119-.938-.5-.03a.5.5 0 0 1-.498.468v1a1.5 1.5 0 0 0 1.497-1.406zm1.13-28.659-.19.463a.48.48 0 0 1 .291.477l.5.032.498.03a1.48 1.48 0 0 0-.908-1.464zm-24.378 0-.19-.462a1.48 1.48 0 0 0-.909 1.465l.499-.031.5-.032a.48.48 0 0 1 .29-.477z" mask="url(#b)"/></g><g mask="url(#c)"><g filter="url(#d)"><path fill="url(#e)" fill-opacity=".5" fill-rule="evenodd" d="M5.002 6.375a.98.98 0 0 1 .6-.972A31.9 31.9 0 0 1 17.792 3c4.315 0 8.432.854 12.188 2.403a.98.98 0 0 1 .6.972l-1.73 27.687a1 1 0 0 1-.998.938H7.73a1 1 0 0 1-.998-.938z" clip-rule="evenodd"/></g><path fill="url(#f)" fill-opacity=".5" fill-rule="evenodd" d="M5.002 6.375a.98.98 0 0 1 .6-.972A31.9 31.9 0 0 1 17.792 3c4.315 0 8.432.854 12.188 2.403a.98.98 0 0 1 .6.972l-1.73 27.687a1 1 0 0 1-.998.938H7.73a1 1 0 0 1-.998-.938z" clip-rule="evenodd" opacity=".75"/><path fill="url(#g)" fill-opacity=".35" d="m8.79 4.974 1.5 28 .027.499-.999.053-.026-.5-1.5-28-.027-.499.999-.053zm19.027-.447-.027.5-1.5 28-.026.5-1-.054.028-.5 1.5-28 .026-.5zM13.291 3.483l1 29.5.017.5-1 .034-.017-.5-1-29.5-.017-.5 1-.034zm10.017-.465-.017.499-1 29.5-.018.5-.998-.035.016-.499 1-29.5.018-.5zM18.29 33.5h-1v-31h1z"/><path fill="url(#h)" fill-opacity=".1" d="m8.79 4.974-.999.052v.001zm1.5 28-.998.053v.001zm.027.499.054.998a1 1 0 0 0 .945-1.053zm-.999.053-.998.053a1 1 0 0 0 1.052.946zm-.026-.5.999-.052v-.001zm-1.5-28 .999-.053v-.001zm-.027-.499L7.71 3.53a1 1 0 0 0-.945 1.053zm.999-.053.998-.053a1 1 0 0 0-1.052-.946zm19.053.053.999.055a1 1 0 0 0-.945-1.053zm-.027.5-.998-.055zm-1.5 28-.998-.054zm-.026.5-.054.998a1 1 0 0 0 1.052-.946zm-1-.054-.998-.055a1 1 0 0 0 .945 1.053zm.028-.5.999.055zm1.5-28 .999.054zm.026-.5.054-.998a1 1 0 0 0-1.052.946zm-13.527-.99 1-.033v-.002zm1 29.5 1-.033zm.017.5.034.999a1 1 0 0 0 .965-1.033zm-1 .034-.999.035a1 1 0 0 0 1.034.964zm-.017-.5-1 .033v.002zm-1-29.5-1 .033zm-.017-.5-.034-.999a1 1 0 0 0-.965 1.033zm1-.034.999-.035a1 1 0 0 0-1.034-.964zm10.034.035 1 .033a1 1 0 0 0-.966-1.033zm-.017.499 1 .033zm-1 29.5 1 .035v-.002zm-.018.5-.034.999a1 1 0 0 0 1.034-.964zm-.998-.035-1-.033a1 1 0 0 0 .965 1.033zm.016-.499-1-.033zm1-29.5-1-.035v.002zm.018-.5.034-.999a1 1 0 0 0-1.034.964zM18.29 33.5v1a1 1 0 0 0 1-1zm-1 0h-1a1 1 0 0 0 1 1zm0-31v-1a1 1 0 0 0-1 1zm1 0h1a1 1 0 0 0-1-1zm-9.5 2.474-1 .053 1.5 28 1-.053.998-.054-1.5-28zm1.5 28-1 .054.028.5.998-.055.999-.055-.027-.5zm.026.499-.053-.999-1 .054.054.998.054.999 1-.054zm-.999.053.999-.052-.026-.5-.999.052-.999.053.027.5zm-.026-.5.999-.053-1.5-28-.999.053-.999.054 1.5 28zm-1.5-28 .999-.054-.028-.5-.998.055-.999.055.028.5zm-.027-.499.053.999 1-.054-.054-.998-.054-.999-.999.054zm.999-.053-.999.052.026.5 1-.052.998-.053-.027-.5zm19.053.053-.998-.054-.027.499.998.054.999.055.027-.499zm-.027.5-.998-.054-1.5 28 .998.053.999.054 1.5-28zm-1.5 28-.998-.053-.027.5.999.052.998.053.027-.5zm-.026.5.053-1-.999-.053-.053.999-.054.998.999.054zm-1-.054 1 .054.027-.499-.999-.054-.998-.055-.028.499zm.028-.5.999.054 1.5-28-.999-.053-.998-.054-1.5 28zm1.5-28 .999.053.026-.5-.999-.052-.998-.053-.027.5zm.026-.5-.053 1 .999.053.053-.999.054-.998-.999-.054zm-13.527-.99-1 .034 1 29.5 1-.034 1-.033-1-29.5zm1 29.5-1 .034.017.499 1-.034 1-.033-.018-.499zm.017.5-.034-1-1 .034.035 1 .034.999.999-.034zm-1 .034 1-.036-.018-.5-.999.036-1 .035.018.5zm-.017-.5 1-.034-1-29.5-1 .034-1 .033 1 29.5zm-1-29.5 1-.034-.017-.499-1 .034-.999.033.017.499zm-.017-.5.035 1 .999-.034-.034-1-.035-.999-.999.034zm1-.034-1 .036.018.5 1-.036.998-.035-.017-.5zm10.034.035-1-.034-.016.5 1 .033.999.033.016-.5zm-.017.499-1-.034-1 29.5 1 .034 1 .033 1-29.5zm-1 29.5-1-.036-.017.5 1 .036.999.035.017-.5zm-.018.5.035-1-1-.034-.034 1-.034.999 1 .034zm-.998-.035.999.034.017-.5-1-.033-1-.033-.016.5zm.016-.499 1 .034 1-29.5-1-.034-1-.033-1 29.5zm1-29.5 1 .036.017-.5-1-.036-.999-.035-.017.5zm.018-.5-.035 1 1 .034.034-1 .034-.999-1-.034zM18.29 33.5v-1h-1v2h1zm-1 0h1v-31h-2v31zm0-31v1h1v-2h-1zm1 0h-1v31h2v-31z" mask="url(#i)"/></g><g filter="url(#j)" shape-rendering="crispEdges"><path fill="#2C2C2C" d="M5.791 35a1 1 0 0 1 1-1h22a1 1 0 0 1 1 1v31h-24z"/><path stroke="#000" stroke-opacity=".5" stroke-width=".5" d="M28.791 33.75c.69 0 1.25.56 1.25 1.25v31.25h-24.5V35c0-.69.56-1.25 1.25-1.25z"/></g><g mask="url(#k)"><g filter="url(#l)" shape-rendering="crispEdges"><path fill="#888" d="M5.791 35a1 1 0 0 1 1-1h22a1 1 0 0 1 1 1v31h-24z"/><path stroke="#000" stroke-opacity=".15" stroke-width=".5" d="M28.791 33.75c.69 0 1.25.56 1.25 1.25v31.25h-24.5V35c0-.69.56-1.25 1.25-1.25z"/></g><g filter="url(#m)" opacity=".75"><path fill="url(#n)" d="M5.791 35a1 1 0 0 1 1-1h22a1 1 0 0 1 1 1v31h-24z"/><path stroke="#fff" stroke-opacity=".1" d="M6.791 34.5h22a.5.5 0 0 1 .5.5v30.5h-23V35a.5.5 0 0 1 .5-.5Z"/></g><g filter="url(#o)"><path fill="url(#p)" fill-opacity=".5" d="M17.291 52h1v-1h-1zm0-1v1h1v-1zm0-2h1v-1h-1zm0-1v1h1v-1zm0-2h1v-1h-1zm1 2h-1v1h1zm0-2v-1h-1v1zm-1 7h-1v2a2 2 0 0 0 2-2zm-1 1v-1h-2a2 2 0 0 0 2 2zm-1-1h1v-2a2 2 0 0 0-2 2zm1-1v1h1v-2h-1zm1 0h-1v1h2v-1zm0-1v-1h-1v2h1zm-1 0v-1h-2a2 2 0 0 0 2 2zm-1-1h1v-2a2 2 0 0 0-2 2zm1-1v1h1v-2h-1zm1 0h-1v2h2v-2zm2 0v1h2a2 2 0 0 0-2-2zm1 1h-1v2a2 2 0 0 0 2-2zm-1 1v-1h-2a2 2 0 0 0 2 2zm-1-1h1v-2a2 2 0 0 0-2 2zm-1-2v-1h-1v2h1zm-1 0v-1h-2a2 2 0 0 0 2 2zm-1-1h1v-2a2 2 0 0 0-2 2zm1-1v1h1v-2h-1zm1 0h-1v2h2v-2zm2 0v1h2a2 2 0 0 0-2-2zm1 1h-1v2a2 2 0 0 0 2-2zm-1 1v-1h-1v2h1zm-1 0h1v-2h-2v2zm0-2v1h1v-2h-1z" mask="url(#q)"/></g><path fill="#000" fill-opacity=".25" d="M5.791 36h24v1h-24zM5.791 39h24v1h-24z"/><path fill="#fff" fill-opacity=".1" d="M5.791 37h24v1h-24zM5.791 40h24v1h-24z"/></g><defs><linearGradient id="e" x1="3.836" x2="30.583" y1="19" y2="20.987" gradientUnits="userSpaceOnUse"><stop stop-opacity="0"/><stop offset=".639" stop-opacity=".5"/><stop offset="1"/></linearGradient><linearGradient id="f" x1="17.791" x2="17.791" y1="7" y2="33.25" gradientUnits="userSpaceOnUse"><stop offset=".702" stop-opacity="0"/><stop offset=".774" stop-opacity=".1"/><stop offset="1"/></linearGradient><linearGradient id="g" x1="17.791" x2="17.791" y1="2.5" y2="33.526" gradientUnits="userSpaceOnUse"><stop/><stop offset="1" stop-opacity="0"/></linearGradient><linearGradient id="h" x1="17.791" x2="17.791" y1="2.5" y2="33.526" gradientUnits="userSpaceOnUse"><stop stop-color="#fff"/><stop offset="1" stop-color="#fff" stop-opacity=".2"/></linearGradient><linearGradient id="n" x1="5.791" x2="29.791" y1="50" y2="50" gradientUnits="userSpaceOnUse"><stop stop-color="#222" stop-opacity=".5"/><stop offset=".394" stop-color="#222" stop-opacity="0"/><stop offset=".832" stop-color="#222"/></linearGradient><linearGradient id="p" x1="20.291" x2="15.291" y1="50" y2="50" gradientUnits="userSpaceOnUse"><stop stop-color="#fff" stop-opacity=".25"/><stop offset="1" stop-color="#fff" stop-opacity=".5"/></linearGradient><filter id="a" width="34.582" height="41" x=".5" y=".5" color-interpolation-filters="sRGB" filterUnits="userSpaceOnUse"><feFlood flood-opacity="0" result="BackgroundImageFix"/><feColorMatrix in="SourceAlpha" result="hardAlpha" values="0 0 0 0 0 0 0 0 0 0 0 0 0 0 0 0 0 0 127 0"/><feOffset dy="1"/><feGaussianBlur stdDeviation="1"/><feColorMatrix values="0 0 0 0 0 0 0 0 0 0 0 0 0 0 0 0 0 0 0.15 0"/><feBlend in2="BackgroundImageFix" result="effect1_dropShadow_1_2625"/><feColorMatrix in="SourceAlpha" result="hardAlpha" values="0 0 0 0 0 0 0 0 0 0 0 0 0 0 0 0 0 0 127 0"/><feOffset dy="2"/><feGaussianBlur stdDeviation="2"/><feComposite in2="hardAlpha" operator="out"/><feColorMatrix values="0 0 0 0 0 0 0 0 0 0 0 0 0 0 0 0 0 0 0.15 0"/><feBlend in2="effect1_dropShadow_1_2625" result="effect2_dropShadow_1_2625"/><feBlend in="SourceGraphic" in2="effect2_dropShadow_1_2625" result="shape"/></filter><filter id="d" width="25.582" height="33" x="5" y="3" color-interpolation-filters="sRGB" filterUnits="userSpaceOnUse"><feFlood flood-opacity="0" result="BackgroundImageFix"/><feBlend in="SourceGraphic" in2="BackgroundImageFix" result="shape"/><feColorMatrix in="SourceAlpha" result="hardAlpha" values="0 0 0 0 0 0 0 0 0 0 0 0 0 0 0 0 0 0 127 0"/><feOffset dy="1"/><feGaussianBlur stdDeviation=".5"/><feComposite in2="hardAlpha" k2="-1" k3="1" operator="arithmetic"/><feColorMatrix values="0 0 0 0 1 0 0 0 0 1 0 0 0 0 1 0 0 0 0.15 0"/><feBlend in2="shape" result="effect1_innerShadow_1_2625"/></filter><filter id="j" width="33" height="41" x="1.291" y="31.5" color-interpolation-filters="sRGB" filterUnits="userSpaceOnUse"><feFlood flood-opacity="0" result="BackgroundImageFix"/><feColorMatrix in="SourceAlpha" result="hardAlpha" values="0 0 0 0 0 0 0 0 0 0 0 0 0 0 0 0 0 0 127 0"/><feOffset dy="1"/><feGaussianBlur stdDeviation="1"/><feColorMatrix values="0 0 0 0 0 0 0 0 0 0 0 0 0 0 0 0 0 0 0.15 0"/><feBlend in2="BackgroundImageFix" result="effect1_dropShadow_1_2625"/><feColorMatrix in="SourceAlpha" result="hardAlpha" values="0 0 0 0 0 0 0 0 0 0 0 0 0 0 0 0 0 0 127 0"/><feOffset dy="2"/><feGaussianBlur stdDeviation="2"/><feComposite in2="hardAlpha" operator="out"/><feColorMatrix values="0 0 0 0 0 0 0 0 0 0 0 0 0 0 0 0 0 0 0.15 0"/><feBlend in2="effect1_dropShadow_1_2625" result="effect2_dropShadow_1_2625"/><feBlend in="SourceGraphic" in2="effect2_dropShadow_1_2625" result="shape"/></filter><filter id="l" width="33" height="41" x="1.291" y="31.5" color-interpolation-filters="sRGB" filterUnits="userSpaceOnUse"><feFlood flood-opacity="0" result="BackgroundImageFix"/><feColorMatrix in="SourceAlpha" result="hardAlpha" values="0 0 0 0 0 0 0 0 0 0 0 0 0 0 0 0 0 0 127 0"/><feOffset dy="1"/><feGaussianBlur stdDeviation="1"/><feColorMatrix values="0 0 0 0 0 0 0 0 0 0 0 0 0 0 0 0 0 0 0.15 0"/><feBlend in2="BackgroundImageFix" result="effect1_dropShadow_1_2625"/><feColorMatrix in="SourceAlpha" result="hardAlpha" values="0 0 0 0 0 0 0 0 0 0 0 0 0 0 0 0 0 0 127 0"/><feOffset dy="2"/><feGaussianBlur stdDeviation="2"/><feComposite in2="hardAlpha" operator="out"/><feColorMatrix values="0 0 0 0 0 0 0 0 0 0 0 0 0 0 0 0 0 0 0.15 0"/><feBlend in2="effect1_dropShadow_1_2625" result="effect2_dropShadow_1_2625"/><feBlend in="SourceGraphic" in2="effect2_dropShadow_1_2625" result="shape"/></filter><filter id="m" width="28" height="36" x="3.791" y="32" color-interpolation-filters="sRGB" filterUnits="userSpaceOnUse"><feFlood flood-opacity="0" result="BackgroundImageFix"/><feBlend in="SourceGraphic" in2="BackgroundImageFix" result="shape"/><feGaussianBlur result="effect1_foregroundBlur_1_2625" stdDeviation="1"/></filter><filter id="o" width="7" height="11" x="14.291" y="44" color-interpolation-filters="sRGB" filterUnits="userSpaceOnUse"><feFlood flood-opacity="0" result="BackgroundImageFix"/><feColorMatrix in="SourceAlpha" result="hardAlpha" values="0 0 0 0 0 0 0 0 0 0 0 0 0 0 0 0 0 0 127 0"/><feOffset dy="-1"/><feColorMatrix values="0 0 0 0 0 0 0 0 0 0 0 0 0 0 0 0 0 0 0.25 0"/><feBlend in2="BackgroundImageFix" result="effect1_dropShadow_1_2625"/><feBlend in="SourceGraphic" in2="effect1_dropShadow_1_2625" result="shape"/></filter><mask id="b" width="28" height="34" x="4" y="2" fill="#000" maskUnits="userSpaceOnUse"><path fill="#fff" d="M4 2h28v34H4z"/><path fill-rule="evenodd" d="M5.002 6.375a.98.98 0 0 1 .6-.972A31.9 31.9 0 0 1 17.792 3c4.315 0 8.432.854 12.188 2.403a.98.98 0 0 1 .6.972l-1.73 27.687a1 1 0 0 1-.998.938H7.73a1 1 0 0 1-.998-.938z" clip-rule="evenodd"/></mask><mask id="c" width="26" height="32" x="5" y="3" maskUnits="userSpaceOnUse" style="mask-type:alpha"><path fill="#fff" fill-rule="evenodd" d="M5.002 6.375a.98.98 0 0 1 .6-.972A31.9 31.9 0 0 1 17.792 3c4.315 0 8.432.854 12.188 2.403a.98.98 0 0 1 .6.972l-1.73 27.687a1 1 0 0 1-.998.938H7.73a1 1 0 0 1-.998-.938z" clip-rule="evenodd"/></mask><mask id="i" width="23" height="34" x="6.765" y="1.5" fill="#000" maskUnits="userSpaceOnUse"><path fill="#fff" d="M6.765 1.5h23v34h-23z"/><path d="m8.79 4.974 1.5 28 .027.499-.999.053-.026-.5-1.5-28-.027-.499.999-.053zm19.027-.447-.027.5-1.5 28-.026.5-1-.054.028-.5 1.5-28 .026-.5zM13.291 3.483l1 29.5.017.5-1 .034-.017-.5-1-29.5-.017-.5 1-.034zm10.017-.465-.017.499-1 29.5-.018.5-.998-.035.016-.499 1-29.5.018-.5zM18.29 33.5h-1v-31h1z"/></mask><mask id="k" width="25" height="32" x="5" y="34" maskUnits="userSpaceOnUse" style="mask-type:alpha"><path fill="#fff" d="M5.791 35a1 1 0 0 1 1-1h22a1 1 0 0 1 1 1v31h-24z"/></mask><mask id="q" width="7" height="10" x="14.291" y="45" fill="#000" maskUnits="userSpaceOnUse"><path fill="#fff" d="M14.291 45h7v10h-7z"/><path d="M17.291 53a1 1 0 1 1-1-1h1zm0-2h-1a1 1 0 1 1 0-2h1zm2-2a1 1 0 1 1 0 2 1 1 0 0 1 0-2m-2-1h-1a1 1 0 1 1 0-2h1zm2-2a1 1 0 1 1 0 2h-1v-2z"/></mask></defs></svg>
