<svg xmlns="http://www.w3.org/2000/svg" width="34" height="68" fill="none"><circle cx="17" cy="22" r="4" fill="url(#a)" fill-opacity=".1"/><circle cx="17" cy="22" r="3.5" stroke="#000" stroke-opacity=".1"/><g mask="url(#b)"><g filter="url(#c)"><path stroke="#fff" stroke-opacity=".25" d="M5.5 40.5h23v36h-23z"/></g><g filter="url(#d)" opacity=".5"><path fill="url(#e)" d="M5 40h24v37H5z"/></g><g filter="url(#f)" opacity=".5"><path fill="url(#g)" d="M5 40h24v37H5z"/></g><path fill="#fff" fill-opacity=".25" d="M5 40h24v1H5z" opacity=".2"/><g filter="url(#h)"><path fill="url(#i)" fill-opacity=".5" d="M16.5 51h1v-1h-1zm0-1v1h1v-1zm0-2h1v-1h-1zm0-1v1h1v-1zm0-2h1v-1h-1zm1 2h-1v1h1zm0-2v-1h-1v1zm-1 7h-1v2a2 2 0 0 0 2-2zm-1 1v-1h-2a2 2 0 0 0 2 2zm-1-1h1v-2a2 2 0 0 0-2 2zm1-1v1h1v-2h-1zm1 0h-1v1h2v-1zm0-1v-1h-1v2h1zm-1 0v-1h-2a2 2 0 0 0 2 2zm-1-1h1v-2a2 2 0 0 0-2 2zm1-1v1h1v-2h-1zm1 0h-1v2h2v-2zm2 0v1h2a2 2 0 0 0-2-2zm1 1h-1v2a2 2 0 0 0 2-2zm-1 1v-1h-2a2 2 0 0 0 2 2zm-1-1h1v-2a2 2 0 0 0-2 2zm-1-2v-1h-1v2h1zm-1 0v-1h-2a2 2 0 0 0 2 2zm-1-1h1v-2a2 2 0 0 0-2 2zm1-1v1h1v-2h-1zm1 0h-1v2h2v-2zm2 0v1h2a2 2 0 0 0-2-2zm1 1h-1v2a2 2 0 0 0 2-2zm-1 1v-1h-1v2h1zm-1 0h1v-2h-2v2zm0-2v1h1v-2h-1z" mask="url(#j)"/></g></g><defs><linearGradient id="a" x1="17" x2="17" y1="18" y2="26" gradientUnits="userSpaceOnUse"><stop/><stop offset="1" stop-opacity="0"/></linearGradient><linearGradient id="e" x1="5" x2="29" y1="58.5" y2="58.5" gradientUnits="userSpaceOnUse"><stop stop-color="#fff" stop-opacity="0"/><stop offset=".4" stop-color="#fff" stop-opacity=".5"/><stop offset="1" stop-color="#fff" stop-opacity="0"/></linearGradient><linearGradient id="g" x1="5" x2="29" y1="58.5" y2="58.5" gradientUnits="userSpaceOnUse"><stop stop-opacity=".1"/><stop offset=".4" stop-opacity="0"/><stop offset="1" stop-opacity=".25"/></linearGradient><linearGradient id="i" x1="19.5" x2="14.5" y1="49" y2="49" gradientUnits="userSpaceOnUse"><stop stop-color="#fff" stop-opacity=".25"/><stop offset="1" stop-color="#fff" stop-opacity=".5"/></linearGradient><filter id="c" width="28" height="41" x="3" y="38" color-interpolation-filters="sRGB" filterUnits="userSpaceOnUse"><feFlood flood-opacity="0" result="BackgroundImageFix"/><feBlend in="SourceGraphic" in2="BackgroundImageFix" result="shape"/><feGaussianBlur result="effect1_foregroundBlur_1_2626" stdDeviation="1"/></filter><filter id="d" width="28" height="41" x="3" y="38" color-interpolation-filters="sRGB" filterUnits="userSpaceOnUse"><feFlood flood-opacity="0" result="BackgroundImageFix"/><feBlend in="SourceGraphic" in2="BackgroundImageFix" result="shape"/><feGaussianBlur result="effect1_foregroundBlur_1_2626" stdDeviation="1"/></filter><filter id="f" width="28" height="41" x="3" y="38" color-interpolation-filters="sRGB" filterUnits="userSpaceOnUse"><feFlood flood-opacity="0" result="BackgroundImageFix"/><feBlend in="SourceGraphic" in2="BackgroundImageFix" result="shape"/><feGaussianBlur result="effect1_foregroundBlur_1_2626" stdDeviation="1"/></filter><filter id="h" width="7" height="11" x="13.5" y="43" color-interpolation-filters="sRGB" filterUnits="userSpaceOnUse"><feFlood flood-opacity="0" result="BackgroundImageFix"/><feColorMatrix in="SourceAlpha" result="hardAlpha" values="0 0 0 0 0 0 0 0 0 0 0 0 0 0 0 0 0 0 127 0"/><feOffset dy="-1"/><feColorMatrix values="0 0 0 0 0 0 0 0 0 0 0 0 0 0 0 0 0 0 0.25 0"/><feBlend in2="BackgroundImageFix" result="effect1_dropShadow_1_2626"/><feBlend in="SourceGraphic" in2="effect1_dropShadow_1_2626" result="shape"/></filter><mask id="b" width="24" height="27" x="5" y="40" maskUnits="userSpaceOnUse" style="mask-type:alpha"><path fill="#D9D9D9" d="M5 40h24v27H5z"/></mask><mask id="j" width="7" height="10" x="13.5" y="44" fill="#000" maskUnits="userSpaceOnUse"><path fill="#fff" d="M13.5 44h7v10h-7z"/><path d="M16.5 52a1 1 0 1 1-1-1h1zm0-2h-1a1 1 0 1 1 0-2h1zm2-2a1 1 0 1 1 0 2 1 1 0 0 1 0-2m-2-1h-1a1 1 0 1 1 0-2h1zm2-2a1 1 0 1 1 0 2h-1v-2z"/></mask></defs></svg>
